<svg xmlns="http://www.w3.org/2000/svg" viewBox="0 0 48 48" width="48" height="48">
  <!-- Outer purple hexagon -->
  <polygon points="24,2 44,13.5 44,36.5 24,48 4,36.5 4,13.5" fill="#7c3aed" />
  <!-- Inner hexagon for contrast -->
  <polygon points="24,6 40.5,15.5 40.5,34.5 24,44 7.5,34.5 7.5,15.5" fill="#1e1b4b" />
  <!-- YT Monogram -->
  <!-- Y Part -->
  <path d="M16 15 L21 15 L24 21 L27 15 L32 15 L26 26 L26 35 L22 35 L22 26 Z" fill="#7c3aed" />
  <!-- Y white highlights -->
  <path d="M16 15 L21 15 L24 21 L22.5 21 Z" fill="#ffffff" />
  <!-- T Part in white -->
  <path d="M21 13 H35 V17 H21 Z" fill="#ffffff" />
  <path d="M26 17 H30 V35 H26 Z" fill="#ffffff" />
</svg>